<svg xmlns="http://www.w3.org/2000/svg" width="543.052" height="77" viewBox="0 0 543.052 77">
  <g id="CTUIL-Logo" transform="translate(-108 -61)">
    <path id="Path_45436" data-name="Path 45436" d="M-.308-13.1H14.669v1.978H12.753V0H10.459V-5.44H5.933a3.428,3.428,0,0,1-1.222.492l-.018.035a9.647,9.647,0,0,0,.571,1.02,10.162,10.162,0,0,0,.708.967,12.127,12.127,0,0,0,.866.94q.475.466,1.037.94L6.425.563A14.423,14.423,0,0,1,5.212-.655q-.6-.672-1.156-1.4T3-3.542Q2.5-4.3,2.065-5.014T1.292-6.372Q.949-7.014.712-7.515l1.942-.993a3.864,3.864,0,0,0,.708,1.244,1.075,1.075,0,0,0,.769.391A.668.668,0,0,0,4.531-7a.923.923,0,0,0,.281-.338,1.829,1.829,0,0,0,.163-.514,3.8,3.8,0,0,0,.053-.659,4.534,4.534,0,0,0-.2-1.354A4.707,4.707,0,0,0,4.2-11.127H-.308ZM10.459-7.4v-3.727H6.583a8.235,8.235,0,0,1,.523,1.349,5.03,5.03,0,0,1,.189,1.384,4.7,4.7,0,0,1-.026.5q-.026.246-.07.492Zm.729-5.458-.255-.475q-.457-.861-.8-1.468T9.5-15.807a4.334,4.334,0,0,0-.523-.624,1.779,1.779,0,0,0-.479-.334,1.6,1.6,0,0,0-.51-.136q-.268-.026-.6-.026H5.59V-18.9H7.225q.694,0,1.191.044a2.581,2.581,0,0,1,.892.233,2.554,2.554,0,0,1,.751.567A6.744,6.744,0,0,1,10.833-17q.417.672.954,1.683t1.292,2.461Zm1.556-3.059a1.3,1.3,0,0,1,.092-.492,1.174,1.174,0,0,1,.259-.4,1.219,1.219,0,0,1,.4-.264,1.329,1.329,0,0,1,.514-.1,1.338,1.338,0,0,1,.51.1,1.223,1.223,0,0,1,.409.268,1.294,1.294,0,0,1,.272.4,1.256,1.256,0,0,1,.1.505,1.326,1.326,0,0,1-.092.5,1.1,1.1,0,0,1-.264.391,1.249,1.249,0,0,1-.4.255,1.36,1.36,0,0,1-.505.092,1.394,1.394,0,0,1-.51-.092,1.17,1.17,0,0,1-.409-.264,1.308,1.308,0,0,1-.272-.4A1.247,1.247,0,0,1,12.744-15.917ZM23.981-.861a6.339,6.339,0,0,1-1.666.743,6.653,6.653,0,0,1-1.8.242,5.659,5.659,0,0,1-2.193-.4,4.911,4.911,0,0,1-1.652-1.1,4.778,4.778,0,0,1-1.042-1.63,5.482,5.482,0,0,1-.36-2,4.523,4.523,0,0,1,.312-1.745,3.387,3.387,0,0,1,.875-1.252A3.731,3.731,0,0,1,17.8-8.763a5.536,5.536,0,0,1,1.723-.255h1.31v-2.109H13.874V-13.1H25.9v1.978H23.129v4.078H19.991a3.735,3.735,0,0,0-1,.123,1.967,1.967,0,0,0-.756.387,1.662,1.662,0,0,0-.475.681A2.776,2.776,0,0,0,17.6-4.852a3.268,3.268,0,0,0,.2,1.178,2.628,2.628,0,0,0,.558.9,2.412,2.412,0,0,0,.848.567,2.874,2.874,0,0,0,1.081.2,4.1,4.1,0,0,0,.936-.114,7.545,7.545,0,0,0,.971-.3,9.025,9.025,0,0,0,.94-.422q.457-.237.844-.483Zm1.705,5.476L23.313,2.54,20.966,4.614,19.674,3.041,23.313-.018,27.022,3.2ZM35.288,0V-7.708q-.105-.018-.207-.031a1.667,1.667,0,0,0-.215-.013,1.381,1.381,0,0,0-.642.141,1.3,1.3,0,0,0-.448.374,1.651,1.651,0,0,0-.264.527,2.064,2.064,0,0,0-.088.593,1.929,1.929,0,0,0,.018.255q.018.132.035.255H31.439q-.053-.4-.136-.8a3.276,3.276,0,0,0-.229-.712,1.477,1.477,0,0,0-.369-.505.812.812,0,0,0-.549-.193.79.79,0,0,0-.453.127,1.015,1.015,0,0,0-.316.356A1.752,1.752,0,0,0,29.2-6.8a3.735,3.735,0,0,0-.057.672,3.861,3.861,0,0,0,.338,1.644,4.773,4.773,0,0,0,.9,1.31A6.735,6.735,0,0,0,31.659-2.14a13.627,13.627,0,0,0,1.494.813L32.133.4A8.635,8.635,0,0,1,31.263,0a9.593,9.593,0,0,1-1.116-.7,11.909,11.909,0,0,1-1.187-.98,7.742,7.742,0,0,1-1.077-1.248,6.58,6.58,0,0,1-.778-1.512,5.117,5.117,0,0,1-.3-1.762A4.8,4.8,0,0,1,27.036-7.7a3.756,3.756,0,0,1,.655-1.226,3.127,3.127,0,0,1,1.028-.826,2.957,2.957,0,0,1,1.349-.3,2.737,2.737,0,0,1,.892.132,2.483,2.483,0,0,1,.659.334,2.513,2.513,0,0,1,.47.439,5.221,5.221,0,0,1,.325.439l.044-.009a2.281,2.281,0,0,1,.422-.562,2.413,2.413,0,0,1,.532-.391,2.352,2.352,0,0,1,.593-.224,2.753,2.753,0,0,1,.615-.07,3.107,3.107,0,0,1,.325.018q.167.018.343.053v-1.23H25.1V-13.1H39.5v1.978H37.582V0ZM56.173-.861a6.339,6.339,0,0,1-1.666.743,6.653,6.653,0,0,1-1.8.242,5.659,5.659,0,0,1-2.193-.4,4.911,4.911,0,0,1-1.652-1.1,4.778,4.778,0,0,1-1.042-1.63,5.482,5.482,0,0,1-.36-2,4.523,4.523,0,0,1,.312-1.745,3.387,3.387,0,0,1,.875-1.252,3.731,3.731,0,0,1,1.345-.756,5.536,5.536,0,0,1,1.723-.255h1.31v-2.109H46.065V-13.1H58.089v1.978H55.32v4.078H52.182a3.735,3.735,0,0,0-1,.123,1.967,1.967,0,0,0-.756.387,1.662,1.662,0,0,0-.475.681,2.776,2.776,0,0,0-.163,1.006,3.268,3.268,0,0,0,.2,1.178,2.628,2.628,0,0,0,.558.9,2.412,2.412,0,0,0,.848.567,2.874,2.874,0,0,0,1.081.2,4.1,4.1,0,0,0,.936-.114,7.545,7.545,0,0,0,.971-.3,9.025,9.025,0,0,0,.94-.422q.457-.237.844-.483Zm1.705,5.476L55.5,2.54,53.158,4.614,51.866,3.041,55.5-.018,59.214,3.2Zm5.748-15.741H61.71V0H59.416V-11.127H57.473V-13.1h6.152Zm-3.858-4.79a1.3,1.3,0,0,1,.092-.492,1.174,1.174,0,0,1,.259-.4,1.219,1.219,0,0,1,.4-.264,1.329,1.329,0,0,1,.514-.1,1.338,1.338,0,0,1,.51.1,1.223,1.223,0,0,1,.409.268,1.294,1.294,0,0,1,.272.4,1.256,1.256,0,0,1,.1.505,1.326,1.326,0,0,1-.092.5,1.1,1.1,0,0,1-.264.391,1.249,1.249,0,0,1-.4.255,1.36,1.36,0,0,1-.505.092,1.394,1.394,0,0,1-.51-.092,1.17,1.17,0,0,1-.409-.264,1.308,1.308,0,0,1-.272-.4A1.247,1.247,0,0,1,59.767-15.917ZM62.83-13.1H77.807v1.978H75.891V0H73.6V-5.44H69.071a3.428,3.428,0,0,1-1.222.492l-.018.035a9.647,9.647,0,0,0,.571,1.02,10.162,10.162,0,0,0,.708.967,12.128,12.128,0,0,0,.866.94q.475.466,1.037.94L69.563.563A14.423,14.423,0,0,1,68.35-.655q-.6-.672-1.156-1.4T66.135-3.542q-.5-.756-.932-1.472T64.43-6.372q-.343-.642-.58-1.143l1.942-.993A3.864,3.864,0,0,0,66.5-7.264a1.075,1.075,0,0,0,.769.391.668.668,0,0,0,.4-.123.923.923,0,0,0,.281-.338,1.829,1.829,0,0,0,.163-.514,3.8,3.8,0,0,0,.053-.659,4.534,4.534,0,0,0-.2-1.354,4.707,4.707,0,0,0-.624-1.266H62.83ZM73.6-7.4v-3.727H69.721a8.235,8.235,0,0,1,.523,1.349,5.03,5.03,0,0,1,.189,1.384,4.7,4.7,0,0,1-.026.5q-.026.246-.07.492Zm9.567-3.727H81.248V.009H78.954V-11.127H77.012V-13.1h1.978a4.945,4.945,0,0,1-.492-2.021,3.476,3.476,0,0,1,.255-1.327,2.888,2.888,0,0,1,.787-1.09,3.819,3.819,0,0,1,1.362-.734,6.487,6.487,0,0,1,1.982-.268,8.438,8.438,0,0,1,2.606.4,9.5,9.5,0,0,1,2.325,1.121,12.552,12.552,0,0,1,2.092,1.749,21.512,21.512,0,0,1,1.907,2.272H89.7q-.308-.308-.716-.694t-.91-.782q-.5-.4-1.077-.769a9.854,9.854,0,0,0-1.208-.668,7.582,7.582,0,0,0-1.318-.47,5.6,5.6,0,0,0-1.4-.176A3.694,3.694,0,0,0,82-16.427a2.1,2.1,0,0,0-.756.4,1.547,1.547,0,0,0-.439.6,2.031,2.031,0,0,0-.141.769,2.713,2.713,0,0,0,.11.751,4.051,4.051,0,0,0,.338.8h2.057Zm12.911,0H94.159V0H91.865V-4.553H87.919V-3.3q0,.176-.013.365a1.1,1.1,0,0,1-.079.347.654.654,0,0,1-.2.264.577.577,0,0,1-.369.105,1.584,1.584,0,0,1-.7-.189,4.393,4.393,0,0,1-.765-.5,5.984,5.984,0,0,1-.743-.708,7.129,7.129,0,0,1-.628-.813,4.941,4.941,0,0,1-.439-.813,1.889,1.889,0,0,1-.167-.716.867.867,0,0,1,.026-.211.354.354,0,0,1,.119-.185.74.74,0,0,1,.255-.132,1.49,1.49,0,0,1,.444-.053h.967v-4.6H82.549V-13.1H96.075Zm-8.156,0v4.6h3.946v-4.6Zm9.822,0H95.28V-13.1h15.891v1.978h-1.916V0h-2.294V-11.127h-2.566l-.018.026a3.25,3.25,0,0,1,.549,1.077,4.243,4.243,0,0,1,.189,1.244,3.961,3.961,0,0,1-.2,1.252,4.826,4.826,0,0,1-.571,1.165,5.743,5.743,0,0,1-.888,1.033,6.564,6.564,0,0,1-1.151.848v.044a7.122,7.122,0,0,1,.879.677q.466.413.923.892t.879.993q.422.514.765.98L104.131.4q-.325-.431-.756-.949T102.448-1.6q-.5-.527-1.046-1.024a11.673,11.673,0,0,0-1.112-.892,4.027,4.027,0,0,1-1.424.264,2.841,2.841,0,0,1-.976-.154,2.255,2.255,0,0,1-.708-.4,1.671,1.671,0,0,1-.431-.554,1.432,1.432,0,0,1-.145-.615,1.246,1.246,0,0,1,.114-.523,1.291,1.291,0,0,1,.338-.444,1.718,1.718,0,0,1,.567-.312,2.445,2.445,0,0,1,.8-.119,3.879,3.879,0,0,1,1.077.158,4.163,4.163,0,0,1,1.024.448,2.392,2.392,0,0,0,.3-.119,3.569,3.569,0,0,0,.466-.259,4.391,4.391,0,0,0,.532-.409,3.253,3.253,0,0,0,.5-.567,3.01,3.01,0,0,0,.374-.738,2.773,2.773,0,0,0,.145-.923,3,3,0,0,0-.123-.861,2.245,2.245,0,0,0-.365-.729,1.826,1.826,0,0,0-.593-.505,1.663,1.663,0,0,0-.8-.189,1.412,1.412,0,0,0-.558.1.976.976,0,0,0-.36.255.944.944,0,0,0-.193.352,1.359,1.359,0,0,0-.057.387,1,1,0,0,0,.391.848,1.853,1.853,0,0,0,1.129.294v1.986a.983.983,0,0,1-.119.009h-.057a4.575,4.575,0,0,1-1.521-.237,3.483,3.483,0,0,1-1.147-.646,2.858,2.858,0,0,1-.725-.954,2.725,2.725,0,0,1-.255-1.169,3.357,3.357,0,0,1,.264-1.266Zm25.713,0h-1.916V0h-2.461V-6.214h-3.806q0,.6-.018,1.015a2.784,2.784,0,0,1-.1.677.691.691,0,0,1-.246.378.794.794,0,0,1-.466.119,1.858,1.858,0,0,1-.725-.149,2.786,2.786,0,0,1-.668-.4,3.572,3.572,0,0,1-.571-.58,4.479,4.479,0,0,1-.448-.69,3.884,3.884,0,0,1-.294-.725,2.487,2.487,0,0,1-.105-.69,1.1,1.1,0,0,1,.1-.514.622.622,0,0,1,.286-.277,1.29,1.29,0,0,1,.448-.11q.264-.022.6-.022h6.012v-2.944h-8.7V-13.1h13.078Zm6.567,0V-13.1h12.621v1.978h-1.916V0h-2.294V-3.261l-.026-.009q-.2.149-.444.294a3.587,3.587,0,0,1-.532.259,3.765,3.765,0,0,1-.642.185,4,4,0,0,1-.782.07,4.143,4.143,0,0,1-1.964-.444,4.474,4.474,0,0,1-1.419-1.169,5.944,5.944,0,0,1-.923-1.639,8.7,8.7,0,0,1-.475-1.863,3.232,3.232,0,0,0,.945-.246,1.925,1.925,0,0,0,.615-.426,1.509,1.509,0,0,0,.334-.554,1.974,1.974,0,0,0,.1-.628,2.5,2.5,0,0,0-.141-.809,4.073,4.073,0,0,0-.448-.888Zm5.528,2.057a2.6,2.6,0,0,1-.439,1.5,2.958,2.958,0,0,1-1.3,1.024,3.068,3.068,0,0,0,.347.888,2.275,2.275,0,0,0,.514.6,1.959,1.959,0,0,0,.633.343,2.318,2.318,0,0,0,.712.11,2.461,2.461,0,0,0,1.424-.409,3.182,3.182,0,0,0,.993-1.138v-4.975h-3.524a4.313,4.313,0,0,1,.488,1.059A3.535,3.535,0,0,1,135.549-9.07Zm8.394,13.755q-.4-.782-.817-1.424a6.214,6.214,0,0,0-.883-1.1,3.61,3.61,0,0,0-1.02-.708,2.943,2.943,0,0,0-1.235-.25,1.948,1.948,0,0,0-1.059.242.752.752,0,0,0-.374.664.729.729,0,0,0,.316.624,1.4,1.4,0,0,0,.835.229,2.737,2.737,0,0,0,1.081-.246l.308,1.433a4.013,4.013,0,0,1-1.7.352,4.235,4.235,0,0,1-1.169-.158,2.966,2.966,0,0,1-.971-.47,2.34,2.34,0,0,1-.664-.765,2.146,2.146,0,0,1-.246-1.042,2.121,2.121,0,0,1,.29-1.121,2.49,2.49,0,0,1,.769-.8,3.519,3.519,0,0,1,1.09-.47,5.074,5.074,0,0,1,1.244-.154,5.244,5.244,0,0,1,1.564.224,6.178,6.178,0,0,1,1.327.584,6.467,6.467,0,0,1,1.1.822,10.05,10.05,0,0,1,.888.932,10.6,10.6,0,0,1,.686.914q.294.444.505.778ZM148-11.127h-1.916V.009h-2.294V-11.127h-1.942V-13.1h1.978a4.945,4.945,0,0,1-.492-2.021,3.476,3.476,0,0,1,.255-1.327,2.888,2.888,0,0,1,.787-1.09,3.819,3.819,0,0,1,1.362-.734,6.487,6.487,0,0,1,1.982-.268,8.438,8.438,0,0,1,2.606.4,9.5,9.5,0,0,1,2.325,1.121,12.552,12.552,0,0,1,2.092,1.749,21.512,21.512,0,0,1,1.907,2.272h-2.109q-.308-.308-.716-.694t-.91-.782q-.5-.4-1.077-.769a9.854,9.854,0,0,0-1.208-.668,7.582,7.582,0,0,0-1.318-.47,5.6,5.6,0,0,0-1.4-.176,3.694,3.694,0,0,0-1.081.141,2.1,2.1,0,0,0-.756.4,1.547,1.547,0,0,0-.439.6,2.031,2.031,0,0,0-.141.769,2.713,2.713,0,0,0,.11.751,4.051,4.051,0,0,0,.338.8H148ZM157.491-.861a6.339,6.339,0,0,1-1.666.743,6.653,6.653,0,0,1-1.8.242,5.659,5.659,0,0,1-2.193-.4,4.911,4.911,0,0,1-1.652-1.1,4.778,4.778,0,0,1-1.042-1.63,5.482,5.482,0,0,1-.36-2,4.523,4.523,0,0,1,.312-1.745,3.387,3.387,0,0,1,.875-1.252,3.731,3.731,0,0,1,1.345-.756,5.536,5.536,0,0,1,1.723-.255h1.31v-2.109h-6.961V-13.1h12.023v1.978h-2.769v4.078H153.5a3.735,3.735,0,0,0-1,.123,1.967,1.967,0,0,0-.756.387,1.662,1.662,0,0,0-.475.681,2.776,2.776,0,0,0-.163,1.006,3.268,3.268,0,0,0,.2,1.178,2.628,2.628,0,0,0,.558.9,2.412,2.412,0,0,0,.848.567,2.874,2.874,0,0,0,1.081.2,4.1,4.1,0,0,0,.936-.114,7.545,7.545,0,0,0,.971-.3,9.025,9.025,0,0,0,.94-.422q.457-.237.844-.483Zm7.273-10.266h-1.916V.009h-2.294V-11.127h-1.942V-13.1h1.978a4.945,4.945,0,0,1-.492-2.021,3.476,3.476,0,0,1,.255-1.327,2.888,2.888,0,0,1,.787-1.09,3.819,3.819,0,0,1,1.362-.734,6.487,6.487,0,0,1,1.982-.268,8.438,8.438,0,0,1,2.606.4,9.5,9.5,0,0,1,2.325,1.121,12.552,12.552,0,0,1,2.092,1.749,21.512,21.512,0,0,1,1.907,2.272H171.3q-.308-.308-.716-.694t-.91-.782q-.5-.4-1.077-.769a9.854,9.854,0,0,0-1.208-.668,7.582,7.582,0,0,0-1.318-.47,5.6,5.6,0,0,0-1.4-.176,3.694,3.694,0,0,0-1.081.141,2.1,2.1,0,0,0-.756.4,1.547,1.547,0,0,0-.439.6,2.031,2.031,0,0,0-.141.769,2.713,2.713,0,0,0,.11.751,4.051,4.051,0,0,0,.338.8h2.057ZM174.335,0V-7.708q-.105-.018-.207-.031a1.667,1.667,0,0,0-.215-.013,1.381,1.381,0,0,0-.642.141,1.3,1.3,0,0,0-.448.374,1.651,1.651,0,0,0-.264.527,2.064,2.064,0,0,0-.088.593,1.929,1.929,0,0,0,.018.255q.018.132.035.255h-2.039q-.053-.4-.136-.8a3.276,3.276,0,0,0-.229-.712,1.477,1.477,0,0,0-.369-.505.812.812,0,0,0-.549-.193.79.79,0,0,0-.453.127,1.015,1.015,0,0,0-.316.356,1.752,1.752,0,0,0-.185.541,3.735,3.735,0,0,0-.057.672,3.861,3.861,0,0,0,.338,1.644,4.773,4.773,0,0,0,.9,1.31,6.735,6.735,0,0,0,1.279,1.033,13.627,13.627,0,0,0,1.494.813L171.18.4A8.635,8.635,0,0,1,170.31,0a9.593,9.593,0,0,1-1.116-.7,11.909,11.909,0,0,1-1.187-.98,7.742,7.742,0,0,1-1.077-1.248,6.58,6.58,0,0,1-.778-1.512,5.117,5.117,0,0,1-.3-1.762,4.8,4.8,0,0,1,.229-1.494,3.756,3.756,0,0,1,.655-1.226,3.127,3.127,0,0,1,1.028-.826,2.957,2.957,0,0,1,1.349-.3,2.737,2.737,0,0,1,.892.132,2.483,2.483,0,0,1,.659.334,2.513,2.513,0,0,1,.47.439,5.221,5.221,0,0,1,.325.439l.044-.009a2.281,2.281,0,0,1,.422-.562,2.413,2.413,0,0,1,.532-.391,2.352,2.352,0,0,1,.593-.224,2.753,2.753,0,0,1,.615-.07,3.107,3.107,0,0,1,.325.018q.167.018.343.053v-1.23H164.149V-13.1h14.4v1.978h-1.916V0Zm13.522-.861a6.339,6.339,0,0,1-1.666.743,6.653,6.653,0,0,1-1.8.242,5.659,5.659,0,0,1-2.193-.4,4.911,4.911,0,0,1-1.652-1.1,4.778,4.778,0,0,1-1.042-1.63,5.482,5.482,0,0,1-.36-2,4.523,4.523,0,0,1,.312-1.745,3.387,3.387,0,0,1,.875-1.252,3.731,3.731,0,0,1,1.345-.756,5.536,5.536,0,0,1,1.723-.255h1.31v-2.109H177.75V-13.1h12.023v1.978H187v4.078h-3.138a3.735,3.735,0,0,0-1,.123,1.967,1.967,0,0,0-.756.387,1.662,1.662,0,0,0-.475.681,2.776,2.776,0,0,0-.163,1.006,3.268,3.268,0,0,0,.2,1.178,2.628,2.628,0,0,0,.558.9,2.412,2.412,0,0,0,.848.567,2.874,2.874,0,0,0,1.081.2,4.1,4.1,0,0,0,.936-.114,7.545,7.545,0,0,0,.971-.3,9.025,9.025,0,0,0,.94-.422q.457-.237.844-.483Zm7.453-10.266h-1.916V0H191.1V-11.127h-1.942V-13.1h1.978a6.752,6.752,0,0,0-.422-1.389,4.693,4.693,0,0,0-.554-.958,2.8,2.8,0,0,0-.62-.606,3.009,3.009,0,0,0-.62-.334,2.349,2.349,0,0,0-.558-.145,3.757,3.757,0,0,0-.426-.031,1.84,1.84,0,0,0-1.248.365,1.173,1.173,0,0,0-.413.918,2.205,2.205,0,0,0,.338,1.107,5.138,5.138,0,0,0,.98,1.169h-2.531a5.064,5.064,0,0,1-.831-1.371,3.708,3.708,0,0,1-.277-1.362,2.58,2.58,0,0,1,.237-1.094,2.441,2.441,0,0,1,.712-.892,3.575,3.575,0,0,1,1.191-.6,5.763,5.763,0,0,1,1.683-.22,5.647,5.647,0,0,1,2.3.426,4.622,4.622,0,0,1,1.613,1.16,5.552,5.552,0,0,1,1.028,1.727,9.75,9.75,0,0,1,.536,2.127h2.057Zm15.76,3.894.29.031q.132.013.3.013a4.748,4.748,0,0,0,1.112-.132,4.334,4.334,0,0,0,.918-.316V-13.1h4.21v1.978h-1.916V0H213.69V-5.678a1.906,1.906,0,0,1-.272.105q-.167.053-.365.1t-.409.07a3.263,3.263,0,0,1-.4.026q.044.22.07.4a2.752,2.752,0,0,1,.026.4,3.265,3.265,0,0,1-.3,1.419,3.092,3.092,0,0,1-.822,1.063,3.72,3.72,0,0,1-1.23.668,4.819,4.819,0,0,1-1.516.233,4.625,4.625,0,0,1-1.521-.237,4.756,4.756,0,0,1-1.248-.646,5.433,5.433,0,0,1-1.015-.962,8.729,8.729,0,0,1-.817-1.191,11.6,11.6,0,0,1-.65-1.327q-.286-.69-.514-1.367l1.96-.791q.158.5.356,1.028a10.308,10.308,0,0,0,.448,1.024,7.659,7.659,0,0,0,.554.932,4.467,4.467,0,0,0,.668.765,2.974,2.974,0,0,0,.791.519,2.262,2.262,0,0,0,.927.189,1.519,1.519,0,0,0,1.182-.448,1.719,1.719,0,0,0,.409-1.2,1.949,1.949,0,0,0-.149-.8,1.512,1.512,0,0,0-.413-.554,1.662,1.662,0,0,0-.624-.321,2.888,2.888,0,0,0-.782-.1q-.088,0-.211,0t-.255.013l-.264.018-.229.018V-8.613a1.472,1.472,0,0,0,.163.009h.163a4.874,4.874,0,0,0,.853-.07,2.038,2.038,0,0,0,.686-.242,1.255,1.255,0,0,0,.457-.461,1.426,1.426,0,0,0,.167-.721,1.135,1.135,0,0,0-.387-.958,1.668,1.668,0,0,0-1.046-.3,3.487,3.487,0,0,0-.967.136,7.669,7.669,0,0,0-.923.33l-.527-1.916a5.945,5.945,0,0,1,1.3-.457,5.783,5.783,0,0,1,1.27-.149,4.319,4.319,0,0,1,1.463.237,3.515,3.515,0,0,1,1.138.65,2.942,2.942,0,0,1,.738.971,2.773,2.773,0,0,1,.264,1.2,2.781,2.781,0,0,1-.391,1.437,3.56,3.56,0,0,1-1.165,1.165l.009.044a3.133,3.133,0,0,1,.387.22Q210.9-7.365,211.071-7.233Zm12.366-3.894h-1.916V0h-2.294V-11.127h-1.942V-13.1h6.152Zm-5.687-7.682q.035.141.105.391a4.55,4.55,0,0,0,.2.549,4.637,4.637,0,0,0,.316.606,2.615,2.615,0,0,0,.461.558,2.262,2.262,0,0,0,.637.409,2.092,2.092,0,0,0,.839.158,2.117,2.117,0,0,0,.817-.149,2.29,2.29,0,0,0,.633-.387,2.641,2.641,0,0,0,.47-.536,4.507,4.507,0,0,0,.334-.593,4.129,4.129,0,0,0,.215-.562q.079-.268.132-.453l1.881.65q-.088.36-.237.791a5.913,5.913,0,0,1-.387.87,5.381,5.381,0,0,1-.576.853,3.865,3.865,0,0,1-.8.734,4.057,4.057,0,0,1-1.068.514,4.431,4.431,0,0,1-1.358.193A4.618,4.618,0,0,1,218.7-14.5a4.05,4.05,0,0,1-1.314-.809,4.746,4.746,0,0,1-.958-1.248,6.59,6.59,0,0,1-.6-1.613Zm14.735,9.615.018.009a3.19,3.19,0,0,1,.633-.457,3.508,3.508,0,0,1,.642-.272,3.551,3.551,0,0,1,.6-.132,4.192,4.192,0,0,1,.505-.035,3.11,3.11,0,0,1,1.4.308,3.335,3.335,0,0,1,1.05.8A3.545,3.545,0,0,1,238-7.84a3.777,3.777,0,0,1,.229,1.292,3.98,3.98,0,0,1-.237,1.349,5.069,5.069,0,0,1-.677,1.27,6.719,6.719,0,0,1-1.055,1.138,8.423,8.423,0,0,1-1.38.962l-1.1-1.916a5.346,5.346,0,0,0,.949-.633,4.347,4.347,0,0,0,.677-.708,2.838,2.838,0,0,0,.4-.729,2.054,2.054,0,0,0,.132-.7,2.03,2.03,0,0,0-.062-.475,1.391,1.391,0,0,0-.207-.466,1.21,1.21,0,0,0-.378-.352,1.1,1.1,0,0,0-.576-.141,1.459,1.459,0,0,0-.681.171,2.581,2.581,0,0,0-.62.457,3.872,3.872,0,0,0-.527.65,4.854,4.854,0,0,0-.4.76V0h-2.294V-3.164l-.018-.009a2.877,2.877,0,0,1-.945.466,3.807,3.807,0,0,1-1.05.149,3.633,3.633,0,0,1-1.252-.233,3.161,3.161,0,0,1-1.156-.751,3.932,3.932,0,0,1-.848-1.345,5.47,5.47,0,0,1-.33-2.021v-4.219h-1.951V-13.1h17.4v1.978h-7.559Zm-2.294-1.934h-3.278v4.166a5.409,5.409,0,0,0,.07.905,2.285,2.285,0,0,0,.233.712,1.2,1.2,0,0,0,.439.466,1.315,1.315,0,0,0,.69.167,1.721,1.721,0,0,0,1.028-.343,2.847,2.847,0,0,0,.817-.976ZM253.668-.1q.387.334.778.611t.76.492q.369.215.7.378t.611.277l-1.081,1.863a10.959,10.959,0,0,1-1.178-.686,13.664,13.664,0,0,1-1.1-.813q-.519-.426-.967-.875a10.156,10.156,0,0,1-.782-.87A3.627,3.627,0,0,1,250.232.1a2.847,2.847,0,0,1-.9-.483,2.193,2.193,0,0,1-.571-.7,1.81,1.81,0,0,1-.2-.835,1.2,1.2,0,0,1,.123-.545,1.327,1.327,0,0,1,.33-.422,1.567,1.567,0,0,1,.483-.277,1.717,1.717,0,0,1,.593-.1,2.621,2.621,0,0,1,1.367.369,3.381,3.381,0,0,1,1.077,1.055,3.087,3.087,0,0,0,.8-.215,1.677,1.677,0,0,0,.523-.347,1.173,1.173,0,0,0,.281-.453,1.671,1.671,0,0,0,.083-.532,1.133,1.133,0,0,0-.092-.5.683.683,0,0,0-.246-.281.925.925,0,0,0-.36-.127,3.017,3.017,0,0,0-.444-.031h-2.3a2.353,2.353,0,0,1-1.318-.352,2.894,2.894,0,0,1-.87-.879,3.723,3.723,0,0,1-.479-1.134,4.858,4.858,0,0,1-.145-1.125,2.674,2.674,0,0,1,.176-1.028,1.856,1.856,0,0,1,.479-.69,1.84,1.84,0,0,1,.7-.387,2.891,2.891,0,0,1,.835-.119h3v-1.09h-6.539V-13.1h11.6v1.978h-2.769V-8.06h-4.192a1.358,1.358,0,0,0-.773.158.575.575,0,0,0-.211.492,1.253,1.253,0,0,0,.053.343.893.893,0,0,0,.185.338.983.983,0,0,0,.369.255,1.559,1.559,0,0,0,.606.1h2.391a3.261,3.261,0,0,1,1.239.207,2.1,2.1,0,0,1,.813.571,2.206,2.206,0,0,1,.448.853,3.857,3.857,0,0,1,.136,1.042,4.058,4.058,0,0,1-.167,1.178,3.171,3.171,0,0,1-.514,1.011,3.38,3.38,0,0,1-.883.8,4.827,4.827,0,0,1-1.266.554Zm.686-15.82a1.3,1.3,0,0,1,.092-.492,1.174,1.174,0,0,1,.259-.4,1.219,1.219,0,0,1,.4-.264,1.329,1.329,0,0,1,.514-.1,1.338,1.338,0,0,1,.51.1,1.223,1.223,0,0,1,.409.268,1.294,1.294,0,0,1,.272.4,1.256,1.256,0,0,1,.1.505,1.326,1.326,0,0,1-.092.5,1.1,1.1,0,0,1-.264.391,1.249,1.249,0,0,1-.4.255,1.36,1.36,0,0,1-.505.092,1.394,1.394,0,0,1-.51-.092,1.17,1.17,0,0,1-.409-.264,1.308,1.308,0,0,1-.272-.4A1.247,1.247,0,0,1,254.354-15.917Zm9.216,4.79h-1.916V.009h-2.294V-11.127h-1.942V-13.1h1.978a4.945,4.945,0,0,1-.492-2.021,3.476,3.476,0,0,1,.255-1.327,2.888,2.888,0,0,1,.787-1.09,3.819,3.819,0,0,1,1.362-.734,6.487,6.487,0,0,1,1.982-.268,8.438,8.438,0,0,1,2.606.4,9.5,9.5,0,0,1,2.325,1.121,12.552,12.552,0,0,1,2.092,1.749,21.512,21.512,0,0,1,1.907,2.272h-2.109q-.308-.308-.716-.694t-.91-.782q-.5-.4-1.077-.769a9.854,9.854,0,0,0-1.208-.668,7.582,7.582,0,0,0-1.318-.47,5.6,5.6,0,0,0-1.4-.176,3.694,3.694,0,0,0-1.081.141,2.1,2.1,0,0,0-.756.4,1.547,1.547,0,0,0-.439.6,2.031,2.031,0,0,0-.141.769,2.713,2.713,0,0,0,.11.751,4.051,4.051,0,0,0,.338.8h2.057Zm13.351,0h-2.76v2.979h-4.421a1.016,1.016,0,0,0-.611.132.512.512,0,0,0-.163.422,1.232,1.232,0,0,0,.048.325.816.816,0,0,0,.18.325,1.07,1.07,0,0,0,.36.255,1.412,1.412,0,0,0,.589.105H272.6a2.977,2.977,0,0,1,1.226.224,2.083,2.083,0,0,1,.8.611,2.408,2.408,0,0,1,.435.91,4.535,4.535,0,0,1,.132,1.112,4.516,4.516,0,0,1-.277,1.582,3.7,3.7,0,0,1-.831,1.314,3.971,3.971,0,0,1-1.389.9A5.233,5.233,0,0,1,270.75.4,6.181,6.181,0,0,1,268.5-.013a7.153,7.153,0,0,1-1.973-1.156,8.012,8.012,0,0,1-1.578-1.762,8.672,8.672,0,0,1-1.059-2.237l1.978-.791a7.737,7.737,0,0,0,.773,1.6A6.916,6.916,0,0,0,267.753-3a5.25,5.25,0,0,0,1.393.945,3.777,3.777,0,0,0,1.6.352,2.763,2.763,0,0,0,.918-.141,1.839,1.839,0,0,0,.668-.4,1.678,1.678,0,0,0,.409-.615,2.183,2.183,0,0,0,.141-.8,1.7,1.7,0,0,0-.066-.519.645.645,0,0,0-.211-.316.811.811,0,0,0-.365-.154,2.965,2.965,0,0,0-.519-.04h-2.5a2.051,2.051,0,0,1-1.165-.325,2.808,2.808,0,0,1-.809-.822,3.717,3.717,0,0,1-.475-1.085,4.452,4.452,0,0,1-.154-1.125A2.532,2.532,0,0,1,266.786-9a1.512,1.512,0,0,1,.448-.615,1.737,1.737,0,0,1,.69-.33,3.719,3.719,0,0,1,.875-.1h3.067v-1.081h-8.912V-13.1H276.92Zm-.8,0V-13.1h12.621v1.978H286.83V0h-2.294V-3.261l-.026-.009q-.2.149-.444.294a3.587,3.587,0,0,1-.532.259,3.765,3.765,0,0,1-.642.185,4,4,0,0,1-.782.07,4.143,4.143,0,0,1-1.964-.444,4.474,4.474,0,0,1-1.419-1.169,5.944,5.944,0,0,1-.923-1.639,8.7,8.7,0,0,1-.475-1.863,3.232,3.232,0,0,0,.945-.246,1.925,1.925,0,0,0,.615-.426,1.509,1.509,0,0,0,.334-.554,1.974,1.974,0,0,0,.1-.628,2.5,2.5,0,0,0-.141-.809,4.073,4.073,0,0,0-.448-.888Zm5.528,2.057a2.6,2.6,0,0,1-.439,1.5,2.958,2.958,0,0,1-1.3,1.024,3.068,3.068,0,0,0,.347.888,2.275,2.275,0,0,0,.514.6,1.959,1.959,0,0,0,.633.343,2.318,2.318,0,0,0,.712.11,2.461,2.461,0,0,0,1.424-.409,3.182,3.182,0,0,0,.993-1.138v-4.975h-3.524a4.313,4.313,0,0,1,.488,1.059A3.535,3.535,0,0,1,281.653-9.07Zm12.63-2.057h-1.916V0h-2.294V-11.127H288.13V-13.1h6.152Zm12.719,0h-1.916V.009h-2.294V-11.127H300.85V-13.1h1.978a4.945,4.945,0,0,1-.492-2.021,3.476,3.476,0,0,1,.255-1.327,2.888,2.888,0,0,1,.787-1.09,3.819,3.819,0,0,1,1.362-.734,6.487,6.487,0,0,1,1.982-.268,8.438,8.438,0,0,1,2.606.4,9.5,9.5,0,0,1,2.325,1.121,12.552,12.552,0,0,1,2.092,1.749,21.512,21.512,0,0,1,1.907,2.272h-2.109q-.308-.308-.716-.694t-.91-.782q-.5-.4-1.077-.769a9.854,9.854,0,0,0-1.208-.668,7.582,7.582,0,0,0-1.318-.47,5.6,5.6,0,0,0-1.4-.176,3.694,3.694,0,0,0-1.081.141,2.1,2.1,0,0,0-.756.4,1.547,1.547,0,0,0-.439.6,2.031,2.031,0,0,0-.141.769,2.713,2.713,0,0,0,.11.751,4.051,4.051,0,0,0,.338.8H307ZM316.573,0V-7.708q-.105-.018-.207-.031a1.667,1.667,0,0,0-.215-.013,1.381,1.381,0,0,0-.642.141,1.3,1.3,0,0,0-.448.374,1.651,1.651,0,0,0-.264.527,2.064,2.064,0,0,0-.088.593,1.929,1.929,0,0,0,.018.255q.018.132.035.255h-2.039q-.053-.4-.136-.8a3.276,3.276,0,0,0-.229-.712,1.477,1.477,0,0,0-.369-.505.812.812,0,0,0-.549-.193.79.79,0,0,0-.453.127,1.015,1.015,0,0,0-.316.356,1.752,1.752,0,0,0-.185.541,3.735,3.735,0,0,0-.057.672,3.861,3.861,0,0,0,.338,1.644,4.773,4.773,0,0,0,.9,1.31,6.735,6.735,0,0,0,1.279,1.033,13.627,13.627,0,0,0,1.494.813L313.418.4a8.635,8.635,0,0,1-.87-.409,9.593,9.593,0,0,1-1.116-.7,11.909,11.909,0,0,1-1.187-.98,7.742,7.742,0,0,1-1.077-1.248,6.58,6.58,0,0,1-.778-1.512,5.117,5.117,0,0,1-.3-1.762A4.8,4.8,0,0,1,308.32-7.7a3.756,3.756,0,0,1,.655-1.226A3.127,3.127,0,0,1,310-9.751a2.957,2.957,0,0,1,1.349-.3,2.737,2.737,0,0,1,.892.132,2.483,2.483,0,0,1,.659.334,2.513,2.513,0,0,1,.47.439,5.221,5.221,0,0,1,.325.439l.044-.009a2.281,2.281,0,0,1,.422-.562,2.413,2.413,0,0,1,.532-.391,2.352,2.352,0,0,1,.593-.224,2.753,2.753,0,0,1,.615-.07,3.107,3.107,0,0,1,.325.018q.167.018.343.053v-1.23H306.387V-13.1h14.4v1.978h-1.916V0Zm9.567-11.127h-1.916V.009H321.93V-11.127h-1.942V-13.1h1.978a4.945,4.945,0,0,1-.492-2.021,3.476,3.476,0,0,1,.255-1.327,2.888,2.888,0,0,1,.787-1.09,3.819,3.819,0,0,1,1.362-.734,6.487,6.487,0,0,1,1.982-.268,8.438,8.438,0,0,1,2.606.4,9.5,9.5,0,0,1,2.325,1.121,12.552,12.552,0,0,1,2.092,1.749,21.512,21.512,0,0,1,1.907,2.272h-2.109q-.308-.308-.716-.694t-.91-.782q-.5-.4-1.077-.769a9.854,9.854,0,0,0-1.208-.668,7.582,7.582,0,0,0-1.318-.47,5.6,5.6,0,0,0-1.4-.176,3.694,3.694,0,0,0-1.081.141,2.1,2.1,0,0,0-.756.4,1.547,1.547,0,0,0-.439.6,2.031,2.031,0,0,0-.141.769,2.713,2.713,0,0,0,.11.751,4.051,4.051,0,0,0,.338.8h2.057Zm12.911,0h-1.916V0h-2.294V-4.553H330.9V-3.3q0,.176-.013.365a1.1,1.1,0,0,1-.079.347.654.654,0,0,1-.2.264.577.577,0,0,1-.369.105,1.584,1.584,0,0,1-.7-.189,4.393,4.393,0,0,1-.765-.5,5.984,5.984,0,0,1-.743-.708,7.129,7.129,0,0,1-.628-.813,4.941,4.941,0,0,1-.439-.813,1.889,1.889,0,0,1-.167-.716.867.867,0,0,1,.026-.211.354.354,0,0,1,.119-.185.74.74,0,0,1,.255-.132,1.49,1.49,0,0,1,.444-.053h.967v-4.6h-3.076V-13.1h13.526Zm-8.156,0v4.6h3.946v-4.6ZM348.364-.861a6.339,6.339,0,0,1-1.666.743,6.653,6.653,0,0,1-1.8.242,5.659,5.659,0,0,1-2.193-.4,4.911,4.911,0,0,1-1.652-1.1,4.778,4.778,0,0,1-1.042-1.63,5.482,5.482,0,0,1-.36-2,4.523,4.523,0,0,1,.312-1.745,3.387,3.387,0,0,1,.875-1.252,3.731,3.731,0,0,1,1.345-.756,5.536,5.536,0,0,1,1.723-.255h1.31v-2.109h-6.961V-13.1H350.28v1.978h-2.769v4.078h-3.138a3.735,3.735,0,0,0-1,.123,1.967,1.967,0,0,0-.756.387,1.662,1.662,0,0,0-.475.681,2.776,2.776,0,0,0-.163,1.006,3.268,3.268,0,0,0,.2,1.178,2.628,2.628,0,0,0,.558.9,2.412,2.412,0,0,0,.848.567,2.874,2.874,0,0,0,1.081.2,4.1,4.1,0,0,0,.936-.114,7.545,7.545,0,0,0,.971-.3,9.025,9.025,0,0,0,.94-.422q.457-.237.844-.483Zm-1.564-12-.255-.475q-.457-.861-.8-1.468t-.633-1.006a4.334,4.334,0,0,0-.523-.624,1.779,1.779,0,0,0-.479-.334,1.6,1.6,0,0,0-.51-.136q-.268-.026-.6-.026H341.2V-18.9h1.635q.694,0,1.191.044a2.581,2.581,0,0,1,.892.233,2.554,2.554,0,0,1,.751.567,6.744,6.744,0,0,1,.773,1.05q.417.672.954,1.683t1.292,2.461Zm16.651,1.731h-2.76v2.979H356.27a1.016,1.016,0,0,0-.611.132.512.512,0,0,0-.163.422,1.232,1.232,0,0,0,.048.325.816.816,0,0,0,.18.325,1.07,1.07,0,0,0,.36.255,1.412,1.412,0,0,0,.589.105h2.461a2.977,2.977,0,0,1,1.226.224,2.083,2.083,0,0,1,.8.611,2.408,2.408,0,0,1,.435.91,4.535,4.535,0,0,1,.132,1.112,4.516,4.516,0,0,1-.277,1.582,3.7,3.7,0,0,1-.831,1.314,3.971,3.971,0,0,1-1.389.9A5.233,5.233,0,0,1,357.28.4a6.181,6.181,0,0,1-2.254-.417,7.153,7.153,0,0,1-1.973-1.156,8.012,8.012,0,0,1-1.578-1.762,8.672,8.672,0,0,1-1.059-2.237l1.978-.791a7.737,7.737,0,0,0,.773,1.6A6.916,6.916,0,0,0,354.283-3a5.25,5.25,0,0,0,1.393.945,3.777,3.777,0,0,0,1.6.352,2.763,2.763,0,0,0,.918-.141,1.839,1.839,0,0,0,.668-.4,1.678,1.678,0,0,0,.409-.615,2.183,2.183,0,0,0,.141-.8,1.7,1.7,0,0,0-.066-.519.645.645,0,0,0-.211-.316.811.811,0,0,0-.365-.154,2.965,2.965,0,0,0-.519-.04h-2.5A2.051,2.051,0,0,1,354.6-5.01a2.808,2.808,0,0,1-.809-.822,3.717,3.717,0,0,1-.475-1.085,4.452,4.452,0,0,1-.154-1.125A2.532,2.532,0,0,1,353.316-9a1.512,1.512,0,0,1,.448-.615,1.737,1.737,0,0,1,.69-.33,3.719,3.719,0,0,1,.875-.1H358.4v-1.081h-8.912V-13.1H363.45Z" transform="translate(241 80)"/>
    <path id="Path_45437" data-name="Path 45437" d="M7.524.216a6.474,6.474,0,0,0,5.2-2.25L10.854-3.762A4.015,4.015,0,0,1,7.686-2.268,3.865,3.865,0,0,1,3.654-6.3a3.865,3.865,0,0,1,4.032-4.032,4.054,4.054,0,0,1,3.168,1.476l1.872-1.728a6.5,6.5,0,0,0-5.184-2.232C3.618-12.816.7-10.1.7-6.3A6.469,6.469,0,0,0,7.524.216Zm15.93-5.022a4.794,4.794,0,0,0-5.04-5.022,4.93,4.93,0,0,0-5.166,4.986c0,2.88,2.178,4.986,5.526,4.986a5.072,5.072,0,0,0,4-1.566l-1.494-1.62a3.283,3.283,0,0,1-2.43.936A2.582,2.582,0,0,1,16.074-4.05H23.4C23.418-4.284,23.454-4.59,23.454-4.806ZM18.432-7.7a2.3,2.3,0,0,1,2.376,2.016h-4.77A2.293,2.293,0,0,1,18.432-7.7Zm12.6-2.124a4.24,4.24,0,0,0-3.2,1.278V-9.684H25.146V0h2.808V-4.788c0-1.782.972-2.61,2.322-2.61,1.242,0,1.962.72,1.962,2.286V0h2.808V-5.544C35.046-8.5,33.318-9.828,31.032-9.828Zm11.862,7.38a1.892,1.892,0,0,1-1.134.36,1.129,1.129,0,0,1-1.206-1.278V-7.308h2.412v-2.16H40.554v-2.358H37.746v2.358H36.252v2.16h1.494V-3.33c0,2.3,1.332,3.474,3.618,3.474A4.013,4.013,0,0,0,43.65-.468Zm4.842-5.958V-9.684H45.054V0h2.808V-4.572a2.379,2.379,0,0,1,2.574-2.7c.216,0,.4.018.63.036V-9.828A3.908,3.908,0,0,0,47.736-8.406Zm8.676-1.422a7.444,7.444,0,0,0-4.176,1.17L53.244-6.7a4.656,4.656,0,0,1,2.79-.9c1.512,0,2.232.7,2.232,1.908H56.034c-2.952,0-4.158,1.188-4.158,2.9,0,1.674,1.35,2.934,3.618,2.934a3.178,3.178,0,0,0,2.952-1.35V0h2.628V-5.526C61.074-8.46,59.364-9.828,56.412-9.828ZM56.2-1.746c-.99,0-1.584-.468-1.584-1.17,0-.648.414-1.134,1.728-1.134h1.926v.99A2.069,2.069,0,0,1,56.2-1.746ZM63.432,0H66.24V-13.356H63.432Zm12.96,0h2.916V-10.224H83.34V-12.6H72.36v2.376h4.032Zm10.6-8.406V-9.684H84.312V0H87.12V-4.572a2.379,2.379,0,0,1,2.574-2.7c.216,0,.4.018.63.036V-9.828A3.908,3.908,0,0,0,86.994-8.406ZM95.67-9.828a7.444,7.444,0,0,0-4.176,1.17L92.5-6.7a4.656,4.656,0,0,1,2.79-.9c1.512,0,2.232.7,2.232,1.908H95.292c-2.952,0-4.158,1.188-4.158,2.9,0,1.674,1.35,2.934,3.618,2.934A3.178,3.178,0,0,0,97.7-1.206V0h2.628V-5.526C100.332-8.46,98.622-9.828,95.67-9.828Zm-.216,8.082c-.99,0-1.584-.468-1.584-1.17,0-.648.414-1.134,1.728-1.134h1.926v.99A2.069,2.069,0,0,1,95.454-1.746Zm13.122-8.082a4.24,4.24,0,0,0-3.2,1.278V-9.684H102.69V0H105.5V-4.788c0-1.782.972-2.61,2.322-2.61,1.242,0,1.962.72,1.962,2.286V0h2.808V-5.544C112.59-8.5,110.862-9.828,108.576-9.828Zm9.63,9.972c2.9,0,4.572-1.278,4.572-3.078,0-3.816-5.85-2.214-5.85-3.87,0-.5.54-.9,1.8-.9a5.561,5.561,0,0,1,2.79.72l.936-2a7.963,7.963,0,0,0-3.726-.846c-2.826,0-4.482,1.3-4.482,3.132,0,3.87,5.85,2.25,5.85,3.834,0,.54-.486.882-1.782.882a6.626,6.626,0,0,1-3.366-.936L114.012-.9A8.313,8.313,0,0,0,118.206.144Zm18.522-9.972a4.354,4.354,0,0,0-3.492,1.584,3.615,3.615,0,0,0-3.186-1.584,3.922,3.922,0,0,0-3.042,1.26V-9.684h-2.682V0h2.808V-4.86c0-1.728.882-2.538,2.124-2.538,1.17,0,1.836.72,1.836,2.286V0H133.9V-4.86c0-1.728.882-2.538,2.142-2.538,1.134,0,1.836.72,1.836,2.286V0h2.808V-5.544C140.688-8.5,139.032-9.828,136.728-9.828Zm7.7-1.206a1.615,1.615,0,0,0,1.746-1.62,1.576,1.576,0,0,0-1.746-1.512,1.605,1.605,0,0,0-1.746,1.566A1.605,1.605,0,0,0,144.432-11.034ZM143.028,0h2.808V-9.684h-2.808Zm8.5.144c2.9,0,4.572-1.278,4.572-3.078,0-3.816-5.85-2.214-5.85-3.87,0-.5.54-.9,1.8-.9a5.561,5.561,0,0,1,2.79.72l.936-2a7.963,7.963,0,0,0-3.726-.846c-2.826,0-4.482,1.3-4.482,3.132,0,3.87,5.85,2.25,5.85,3.834,0,.54-.486.882-1.782.882a6.625,6.625,0,0,1-3.366-.936L147.33-.9A8.313,8.313,0,0,0,151.524.144Zm9.378,0c2.9,0,4.572-1.278,4.572-3.078,0-3.816-5.85-2.214-5.85-3.87,0-.5.54-.9,1.8-.9a5.561,5.561,0,0,1,2.79.72l.936-2a7.963,7.963,0,0,0-3.726-.846c-2.826,0-4.482,1.3-4.482,3.132,0,3.87,5.85,2.25,5.85,3.834,0,.54-.486.882-1.782.882a6.625,6.625,0,0,1-3.366-.936L156.708-.9A8.313,8.313,0,0,0,160.9.144Zm7.524-11.178a1.615,1.615,0,0,0,1.746-1.62,1.576,1.576,0,0,0-1.746-1.512A1.605,1.605,0,0,0,166.68-12.6,1.605,1.605,0,0,0,168.426-11.034ZM167.022,0h2.808V-9.684h-2.808Zm9.846.144a4.97,4.97,0,0,0,5.31-4.986,4.97,4.97,0,0,0-5.31-4.986,4.985,4.985,0,0,0-5.328,4.986A4.985,4.985,0,0,0,176.868.144Zm0-2.3a2.457,2.457,0,0,1-2.484-2.682,2.457,2.457,0,0,1,2.484-2.682,2.444,2.444,0,0,1,2.466,2.682A2.444,2.444,0,0,1,176.868-2.16Zm12.888-7.668a4.24,4.24,0,0,0-3.2,1.278V-9.684H183.87V0h2.808V-4.788c0-1.782.972-2.61,2.322-2.61,1.242,0,1.962.72,1.962,2.286V0h2.808V-5.544C193.77-8.5,192.042-9.828,189.756-9.828ZM206.838.216c3.582,0,5.706-2.052,5.706-5.76V-12.6h-2.88v6.948c0,2.394-1.026,3.384-2.808,3.384-1.764,0-2.808-.99-2.808-3.384V-12.6h-2.916v7.056C201.132-1.836,203.256.216,206.838.216Zm13.7-2.664a1.892,1.892,0,0,1-1.134.36A1.129,1.129,0,0,1,218.2-3.366V-7.308h2.412v-2.16H218.2v-2.358h-2.808v2.358h-1.494v2.16h1.494V-3.33c0,2.3,1.332,3.474,3.618,3.474a4.013,4.013,0,0,0,2.286-.612Zm3.564-8.586a1.615,1.615,0,0,0,1.746-1.62,1.576,1.576,0,0,0-1.746-1.512,1.605,1.605,0,0,0-1.746,1.566A1.605,1.605,0,0,0,224.1-11.034ZM222.7,0H225.5V-9.684H222.7Zm5.238,0h2.808V-13.356h-2.808Zm6.642-11.034a1.615,1.615,0,0,0,1.746-1.62,1.576,1.576,0,0,0-1.746-1.512A1.605,1.605,0,0,0,232.83-12.6,1.605,1.605,0,0,0,234.576-11.034ZM233.172,0h2.808V-9.684h-2.808ZM243.9-2.448a1.892,1.892,0,0,1-1.134.36,1.129,1.129,0,0,1-1.206-1.278V-7.308h2.412v-2.16H241.56v-2.358h-2.808v2.358h-1.494v2.16h1.494V-3.33c0,2.3,1.332,3.474,3.618,3.474a4.013,4.013,0,0,0,2.286-.612Zm8.892-7.236-2.736,6.57-2.718-6.57h-2.9L248.634.072l-.036.09c-.378.864-.81,1.206-1.584,1.206A2.49,2.49,0,0,1,245.43.756l-1.026,2a4.3,4.3,0,0,0,2.7.882c1.746,0,3.078-.7,4.014-3.042l4.374-10.278ZM265.986.144a4.97,4.97,0,0,0,5.31-4.986,4.97,4.97,0,0,0-5.31-4.986,4.985,4.985,0,0,0-5.328,4.986A4.985,4.985,0,0,0,265.986.144Zm0-2.3A2.457,2.457,0,0,1,263.5-4.842a2.457,2.457,0,0,1,2.484-2.682,2.444,2.444,0,0,1,2.466,2.682A2.444,2.444,0,0,1,265.986-2.16Zm10.08-7.722c0-.954.45-1.4,1.278-1.4a1.966,1.966,0,0,1,1.134.342l.738-2.034a3.98,3.98,0,0,0-2.142-.522,3.38,3.38,0,0,0-3.744,3.6v.432h-1.494v2.16h1.494V0h2.808V-7.308h2.412v-2.16h-2.484ZM284.886,0H287.8V-12.6h-2.916ZM296.3-9.828a4.24,4.24,0,0,0-3.2,1.278V-9.684h-2.682V0h2.808V-4.788c0-1.782.972-2.61,2.322-2.61,1.242,0,1.962.72,1.962,2.286V0h2.808V-5.544C300.312-8.5,298.584-9.828,296.3-9.828Zm13.536-3.528v4.7a3.72,3.72,0,0,0-2.9-1.17,4.708,4.708,0,0,0-4.842,4.986A4.708,4.708,0,0,0,306.936.144a3.725,3.725,0,0,0,3.024-1.26V0h2.682V-13.356Zm-2.412,11.2a2.457,2.457,0,0,1-2.484-2.682,2.457,2.457,0,0,1,2.484-2.682,2.454,2.454,0,0,1,2.466,2.682A2.454,2.454,0,0,1,307.422-2.16Zm9.036-8.874a1.615,1.615,0,0,0,1.746-1.62,1.576,1.576,0,0,0-1.746-1.512,1.605,1.605,0,0,0-1.746,1.566A1.605,1.605,0,0,0,316.458-11.034ZM315.054,0h2.808V-9.684h-2.808ZM324.2-9.828a7.444,7.444,0,0,0-4.176,1.17L321.03-6.7a4.656,4.656,0,0,1,2.79-.9c1.512,0,2.232.7,2.232,1.908H323.82c-2.952,0-4.158,1.188-4.158,2.9,0,1.674,1.35,2.934,3.618,2.934a3.178,3.178,0,0,0,2.952-1.35V0h2.628V-5.526C328.86-8.46,327.15-9.828,324.2-9.828Zm-.216,8.082c-.99,0-1.584-.468-1.584-1.17,0-.648.414-1.134,1.728-1.134h1.926v.99A2.069,2.069,0,0,1,323.982-1.746ZM336.33,0h9.234V-2.376h-6.318V-12.6H336.33Zm11.9-11.034a1.615,1.615,0,0,0,1.746-1.62,1.576,1.576,0,0,0-1.746-1.512,1.605,1.605,0,0,0-1.746,1.566A1.605,1.605,0,0,0,348.228-11.034ZM346.824,0h2.808V-9.684h-2.808Zm17.64-9.828a4.354,4.354,0,0,0-3.492,1.584,3.615,3.615,0,0,0-3.186-1.584,3.922,3.922,0,0,0-3.042,1.26V-9.684h-2.682V0h2.808V-4.86c0-1.728.882-2.538,2.124-2.538,1.17,0,1.836.72,1.836,2.286V0h2.808V-4.86c0-1.728.882-2.538,2.142-2.538,1.134,0,1.836.72,1.836,2.286V0h2.808V-5.544C368.424-8.5,366.768-9.828,364.464-9.828Zm7.7-1.206a1.615,1.615,0,0,0,1.746-1.62,1.576,1.576,0,0,0-1.746-1.512,1.605,1.605,0,0,0-1.746,1.566A1.605,1.605,0,0,0,372.168-11.034ZM370.764,0h2.808V-9.684h-2.808Zm10.728-2.448a1.892,1.892,0,0,1-1.134.36,1.129,1.129,0,0,1-1.206-1.278V-7.308h2.412v-2.16h-2.412v-2.358h-2.808v2.358H374.85v2.16h1.494V-3.33c0,2.3,1.332,3.474,3.618,3.474a4.013,4.013,0,0,0,2.286-.612Zm11.34-2.358a4.794,4.794,0,0,0-5.04-5.022,4.93,4.93,0,0,0-5.166,4.986c0,2.88,2.178,4.986,5.526,4.986a5.072,5.072,0,0,0,4-1.566l-1.494-1.62a3.283,3.283,0,0,1-2.43.936,2.582,2.582,0,0,1-2.772-1.944h7.326C392.8-4.284,392.832-4.59,392.832-4.806ZM387.81-7.7a2.3,2.3,0,0,1,2.376,2.016h-4.77A2.293,2.293,0,0,1,387.81-7.7Zm13.77-5.652v4.7a3.72,3.72,0,0,0-2.9-1.17,4.708,4.708,0,0,0-4.842,4.986A4.708,4.708,0,0,0,398.682.144a3.725,3.725,0,0,0,3.024-1.26V0h2.682V-13.356Zm-2.412,11.2a2.457,2.457,0,0,1-2.484-2.682,2.457,2.457,0,0,1,2.484-2.682,2.454,2.454,0,0,1,2.466,2.682A2.454,2.454,0,0,1,399.168-2.16Z" transform="translate(241 102)"/>
    <path id="Path_45439" data-name="Path 45439" d="M7.644,0H8.58L4.74-8.4H3.864L.024,0H.948L1.956-2.244h4.68ZM2.28-2.964,4.3-7.476,6.312-2.964Zm16.752,1.6a3.637,3.637,0,0,1-2.2.648A3.442,3.442,0,0,1,13.248-4.2a3.438,3.438,0,0,1,3.6-3.48A3.426,3.426,0,0,1,19.38-6.7l.552-.564a4.139,4.139,0,0,0-3.12-1.212A4.227,4.227,0,0,0,12.372-4.2,4.224,4.224,0,0,0,16.8.072,4.635,4.635,0,0,0,19.884-1V-4.2h-.852ZM24.792.06A3.1,3.1,0,0,0,28-3.156a3.1,3.1,0,0,0-3.2-3.2,3.1,3.1,0,0,0-3.216,3.2A3.114,3.114,0,0,0,24.792.06Zm0-.756a2.311,2.311,0,0,1-2.352-2.46,2.311,2.311,0,0,1,2.352-2.46,2.3,2.3,0,0,1,2.34,2.46A2.3,2.3,0,0,1,24.792-.7ZM34.02-6.312,31.632-.936,29.268-6.312H28.38L31.176,0h.876L34.86-6.312Zm7.368,3.156a3.008,3.008,0,0,0-3.06-3.2,3.04,3.04,0,0,0-3.084,3.2A3.126,3.126,0,0,0,38.556.06,3.107,3.107,0,0,0,40.992-.972l-.48-.552A2.488,2.488,0,0,1,38.58-.7a2.336,2.336,0,0,1-2.484-2.2h5.28C41.376-2.988,41.388-3.084,41.388-3.156Zm-3.06-2.472a2.2,2.2,0,0,1,2.244,2.1H36.1A2.192,2.192,0,0,1,38.328-5.628Zm5.616.552V-6.312h-.816V0h.852V-3.216A2.042,2.042,0,0,1,46.1-5.544c.06,0,.132.012.2.012V-6.36A2.38,2.38,0,0,0,43.944-5.076ZM51.06-6.36a2.653,2.653,0,0,0-2.4,1.212V-6.312h-.816V0H48.7V-3.312A2.069,2.069,0,0,1,50.9-5.592a1.762,1.762,0,0,1,1.9,2.016V0h.852V-3.66A2.416,2.416,0,0,0,51.06-6.36Zm12.78,0a2.749,2.749,0,0,0-2.5,1.332A2.267,2.267,0,0,0,59.1-6.36a2.552,2.552,0,0,0-2.316,1.2V-6.312h-.816V0h.852V-3.312a2.034,2.034,0,0,1,2.112-2.28c1.152,0,1.824.684,1.824,2.016V0h.852V-3.312a2.029,2.029,0,0,1,2.112-2.28c1.14,0,1.812.684,1.812,2.016V0h.852V-3.66A2.382,2.382,0,0,0,63.84-6.36Zm10.392,3.2a3.008,3.008,0,0,0-3.06-3.2,3.04,3.04,0,0,0-3.084,3.2A3.126,3.126,0,0,0,71.4.06,3.107,3.107,0,0,0,73.836-.972l-.48-.552A2.488,2.488,0,0,1,71.424-.7a2.336,2.336,0,0,1-2.484-2.2h5.28C74.22-2.988,74.232-3.084,74.232-3.156Zm-3.06-2.472a2.2,2.2,0,0,1,2.244,2.1H68.94A2.192,2.192,0,0,1,71.172-5.628Zm8.016-.732a2.653,2.653,0,0,0-2.4,1.212V-6.312h-.816V0h.852V-3.312a2.069,2.069,0,0,1,2.208-2.28,1.762,1.762,0,0,1,1.9,2.016V0h.852V-3.66A2.416,2.416,0,0,0,79.188-6.36ZM87.12-1a1.41,1.41,0,0,1-.936.324,1.011,1.011,0,0,1-1.092-1.152V-5.592h1.92v-.72h-1.92v-1.38H84.24v1.38H83.112v.72H84.24v3.816A1.672,1.672,0,0,0,86.088.06,2.029,2.029,0,0,0,87.42-.384ZM94.692.06a3.1,3.1,0,0,0,3.2-3.216,3.1,3.1,0,0,0-3.2-3.2,3.1,3.1,0,0,0-3.216,3.2A3.114,3.114,0,0,0,94.692.06Zm0-.756a2.311,2.311,0,0,1-2.352-2.46,2.311,2.311,0,0,1,2.352-2.46,2.3,2.3,0,0,1,2.34,2.46A2.3,2.3,0,0,1,94.692-.7Zm7.032-7.548a1.443,1.443,0,0,1,.936.312l.288-.636a2,2,0,0,0-1.26-.4A1.738,1.738,0,0,0,99.78-7.092v.78H98.652v.72H99.78V0h.852V-5.592h1.92v-.72h-1.944v-.744C100.608-7.836,100.992-8.244,101.724-8.244ZM107.028,0h.888V-8.4h-.888Zm6.66-6.36a2.653,2.653,0,0,0-2.4,1.212V-6.312h-.816V0h.852V-3.312a2.069,2.069,0,0,1,2.208-2.28,1.762,1.762,0,0,1,1.9,2.016V0h.852V-3.66A2.416,2.416,0,0,0,113.688-6.36Zm9.84-2.544v3.792a2.757,2.757,0,0,0-2.4-1.248,3.054,3.054,0,0,0-3.144,3.2A3.063,3.063,0,0,0,121.128.06a2.734,2.734,0,0,0,2.436-1.308V0h.816V-8.9ZM121.2-.7a2.311,2.311,0,0,1-2.352-2.46,2.311,2.311,0,0,1,2.352-2.46,2.308,2.308,0,0,1,2.34,2.46A2.308,2.308,0,0,1,121.2-.7Zm5.988-7a.612.612,0,0,0,.624-.624.605.605,0,0,0-.624-.588.615.615,0,0,0-.624.6A.617.617,0,0,0,127.188-7.692ZM126.756,0h.852V-6.312h-.852Zm5.436-6.36a4.008,4.008,0,0,0-2.568.852l.384.636a3.215,3.215,0,0,1,2.1-.744c1.176,0,1.788.588,1.788,1.668v.384h-2c-1.812,0-2.436.816-2.436,1.788,0,1.092.876,1.836,2.3,1.836a2.37,2.37,0,0,0,2.172-1.044V0h.816V-3.912A2.242,2.242,0,0,0,132.192-6.36Zm-.3,5.748c-1.008,0-1.6-.456-1.6-1.188,0-.648.4-1.128,1.62-1.128h1.98V-1.9A2.019,2.019,0,0,1,131.892-.612Zm9.384-.156v-3.12h4.344v-.756h-4.344V-7.632h4.872V-8.4h-5.76V0h5.94V-.768ZM151.452-6.36a2.653,2.653,0,0,0-2.4,1.212V-6.312h-.816V0h.852V-3.312a2.069,2.069,0,0,1,2.208-2.28,1.762,1.762,0,0,1,1.9,2.016V0h.852V-3.66A2.416,2.416,0,0,0,151.452-6.36ZM159.384-1a1.41,1.41,0,0,1-.936.324,1.011,1.011,0,0,1-1.092-1.152V-5.592h1.92v-.72h-1.92v-1.38H156.5v1.38h-1.128v.72H156.5v3.816A1.672,1.672,0,0,0,158.352.06a2.029,2.029,0,0,0,1.332-.444Zm7.128-2.16a3.008,3.008,0,0,0-3.06-3.2,3.04,3.04,0,0,0-3.084,3.2A3.126,3.126,0,0,0,163.68.06a3.107,3.107,0,0,0,2.436-1.032l-.48-.552A2.488,2.488,0,0,1,163.7-.7a2.336,2.336,0,0,1-2.484-2.2h5.28C166.5-2.988,166.512-3.084,166.512-3.156Zm-3.06-2.472a2.2,2.2,0,0,1,2.244,2.1H161.22A2.192,2.192,0,0,1,163.452-5.628Zm5.616.552V-6.312h-.816V0h.852V-3.216a2.042,2.042,0,0,1,2.124-2.328c.06,0,.132.012.2.012V-6.36A2.38,2.38,0,0,0,169.068-5.076ZM176.22-6.36a2.749,2.749,0,0,0-2.436,1.3V-6.312h-.816v8.64h.852V-1.188A2.757,2.757,0,0,0,176.22.06a3.057,3.057,0,0,0,3.144-3.216A3.054,3.054,0,0,0,176.22-6.36ZM176.16-.7a2.311,2.311,0,0,1-2.352-2.46,2.318,2.318,0,0,1,2.352-2.46,2.325,2.325,0,0,1,2.352,2.46A2.318,2.318,0,0,1,176.16-.7Zm5.76-4.38V-6.312H181.1V0h.852V-3.216a2.042,2.042,0,0,1,2.124-2.328c.06,0,.132.012.2.012V-6.36A2.38,2.38,0,0,0,181.92-5.076Zm4.332-2.616a.612.612,0,0,0,.624-.624.605.605,0,0,0-.624-.588.615.615,0,0,0-.624.6A.617.617,0,0,0,186.252-7.692ZM185.82,0h.852V-6.312h-.852Zm4.92.06c1.644,0,2.6-.708,2.6-1.8,0-2.424-4.092-1.14-4.092-2.844,0-.6.5-1.044,1.644-1.044a3.235,3.235,0,0,1,1.86.54l.372-.684A4.277,4.277,0,0,0,190.9-6.36c-1.608,0-2.5.768-2.5,1.8,0,2.5,4.092,1.2,4.092,2.844,0,.624-.492,1.032-1.692,1.032a3.813,3.813,0,0,1-2.244-.708l-.384.672A4.217,4.217,0,0,0,190.74.06Zm9.684-3.216a3.008,3.008,0,0,0-3.06-3.2,3.04,3.04,0,0,0-3.084,3.2A3.126,3.126,0,0,0,197.592.06a3.107,3.107,0,0,0,2.436-1.032l-.48-.552a2.488,2.488,0,0,1-1.932.828,2.336,2.336,0,0,1-2.484-2.2h5.28C200.412-2.988,200.424-3.084,200.424-3.156Zm-3.06-2.472a2.2,2.2,0,0,1,2.244,2.1h-4.476A2.192,2.192,0,0,1,197.364-5.628Z" transform="translate(241 135)" fill="#333"/>
    <path id="Path_45438" data-name="Path 45438" d="M12.048,3.6l-2.46,7.26L7.116,3.6H6.288L3.78,10.824,1.356,3.6H.444L3.276,12H4.2L6.672,4.836,9.132,12h.936L12.9,3.6Zm5.628,2.04a2.667,2.667,0,0,0-2.364,1.152V3.1H14.46V12h.852V8.688a2.069,2.069,0,0,1,2.208-2.28,1.762,1.762,0,0,1,1.9,2.016V12h.852V8.34A2.416,2.416,0,0,0,17.676,5.64Zm7.452,6.42a3.1,3.1,0,0,0,3.2-3.216,3.21,3.21,0,0,0-6.42,0A3.114,3.114,0,0,0,25.128,12.06Zm0-.756a2.311,2.311,0,0,1-2.352-2.46,2.349,2.349,0,1,1,4.692,0A2.3,2.3,0,0,1,25.128,11.3Zm4.884.7h.852V3.1h-.852Zm3.168,0h.852V3.1H33.18Zm7.632-6.312-2.376,5.364L36.06,5.688h-.888l2.82,6.3-.276.612c-.36.792-.744,1.056-1.308,1.056a1.576,1.576,0,0,1-1.152-.48l-.4.636a2.16,2.16,0,0,0,1.536.576c.9,0,1.572-.4,2.1-1.632l3.156-7.068Zm8.916,6.384a4.224,4.224,0,0,0,4.4-4.272,4.412,4.412,0,0,0-8.82,0A4.227,4.227,0,0,0,49.728,12.072Zm0-.792a3.416,3.416,0,0,1-3.54-3.48,3.528,3.528,0,0,1,7.056,0A3.4,3.4,0,0,1,49.728,11.28Zm14.64-5.592-2,5.364L60.348,5.688h-.732l-2.028,5.364-1.98-5.364h-.816L57.168,12h.8l1.992-5.172L61.956,12h.8l2.388-6.312Zm5.22-.048a2.653,2.653,0,0,0-2.4,1.212V5.688h-.816V12h.852V8.688a2.069,2.069,0,0,1,2.208-2.28,1.762,1.762,0,0,1,1.9,2.016V12h.852V8.34A2.416,2.416,0,0,0,69.588,5.64Zm10.38,3.2a3.008,3.008,0,0,0-3.06-3.2,3.04,3.04,0,0,0-3.084,3.2,3.337,3.337,0,0,0,5.748,2.184l-.48-.552a2.488,2.488,0,0,1-1.932.828,2.336,2.336,0,0,1-2.484-2.2h5.28C79.956,9.012,79.968,8.916,79.968,8.844Zm-3.06-2.472a2.2,2.2,0,0,1,2.244,2.1H74.676A2.192,2.192,0,0,1,76.908,6.372ZM86.556,3.1V6.888a2.757,2.757,0,0,0-2.4-1.248,3.054,3.054,0,0,0-3.144,3.2,3.063,3.063,0,0,0,3.144,3.216,2.734,2.734,0,0,0,2.436-1.308V12h.816V3.1ZM84.228,11.3a2.311,2.311,0,0,1-2.352-2.46,2.349,2.349,0,1,1,4.692,0A2.308,2.308,0,0,1,84.228,11.3Zm11.076.768c2.148,0,3.132-1.056,3.132-2.292,0-3.06-5.172-1.668-5.172-3.972,0-.84.684-1.524,2.22-1.524a4.325,4.325,0,0,1,2.3.7l.3-.708a4.742,4.742,0,0,0-2.6-.744c-2.136,0-3.1,1.068-3.1,2.3,0,3.108,5.172,1.692,5.172,4,0,.828-.684,1.488-2.256,1.488a4.125,4.125,0,0,1-2.772-1.02l-.348.684A4.555,4.555,0,0,0,95.3,12.072Zm9.66-6.384V9a2.052,2.052,0,0,1-2.148,2.292,1.767,1.767,0,0,1-1.9-2.028V5.688h-.852v3.66a2.445,2.445,0,0,0,2.664,2.712A2.511,2.511,0,0,0,105,10.848V12h.816V5.688ZM111.4,5.64A2.757,2.757,0,0,0,109,6.888V3.1h-.852V12h.816V10.752A2.734,2.734,0,0,0,111.4,12.06a3.063,3.063,0,0,0,3.144-3.216A3.054,3.054,0,0,0,111.4,5.64Zm-.06,5.664a2.311,2.311,0,0,1-2.352-2.46,2.354,2.354,0,1,1,4.7,0A2.318,2.318,0,0,1,111.336,11.3Zm6.576.756c1.644,0,2.6-.708,2.6-1.8,0-2.424-4.092-1.14-4.092-2.844,0-.6.5-1.044,1.644-1.044a3.235,3.235,0,0,1,1.86.54l.372-.684a4.277,4.277,0,0,0-2.232-.588c-1.608,0-2.5.768-2.5,1.8,0,2.5,4.092,1.2,4.092,2.844,0,.624-.492,1.032-1.692,1.032a3.813,3.813,0,0,1-2.244-.708l-.384.672A4.217,4.217,0,0,0,117.912,12.06Zm4.548-7.752a.612.612,0,0,0,.624-.624.605.605,0,0,0-.624-.588.606.606,0,1,0,0,1.212ZM122.028,12h.852V5.688h-.852ZM130.1,3.1V6.888a2.757,2.757,0,0,0-2.4-1.248,3.054,3.054,0,0,0-3.144,3.2A3.063,3.063,0,0,0,127.7,12.06a2.734,2.734,0,0,0,2.436-1.308V12h.816V3.1ZM127.776,11.3a2.311,2.311,0,0,1-2.352-2.46,2.349,2.349,0,1,1,4.692,0A2.308,2.308,0,0,1,127.776,11.3Zm5.928-7a.612.612,0,0,0,.624-.624A.605.605,0,0,0,133.7,3.1a.606.606,0,1,0,0,1.212ZM133.272,12h.852V5.688h-.852Zm5.376-6.36a4.008,4.008,0,0,0-2.568.852l.384.636a3.215,3.215,0,0,1,2.1-.744c1.176,0,1.788.588,1.788,1.668v.384h-2c-1.812,0-2.436.816-2.436,1.788,0,1.092.876,1.836,2.3,1.836a2.37,2.37,0,0,0,2.172-1.044V12h.816V8.088A2.242,2.242,0,0,0,138.648,5.64Zm-.3,5.748c-1.008,0-1.6-.456-1.6-1.188,0-.648.4-1.128,1.62-1.128h1.98V10.1A2.019,2.019,0,0,1,138.348,11.388Zm5.928-4.464V5.688h-.816V12h.852V8.784a2.042,2.042,0,0,1,2.124-2.328c.06,0,.132.012.2.012V5.64A2.38,2.38,0,0,0,144.276,6.924Zm8.58-1.236-2.376,5.364L148.1,5.688h-.888l2.82,6.3-.276.612c-.36.792-.744,1.056-1.308,1.056a1.576,1.576,0,0,1-1.152-.48l-.4.636a2.16,2.16,0,0,0,1.536.576c.9,0,1.572-.4,2.1-1.632L153.7,5.688ZM160.5,12.06a3.1,3.1,0,0,0,3.2-3.216,3.21,3.21,0,0,0-6.42,0A3.114,3.114,0,0,0,160.5,12.06Zm0-.756a2.311,2.311,0,0,1-2.352-2.46,2.349,2.349,0,1,1,4.692,0A2.3,2.3,0,0,1,160.5,11.3Zm6.972-7.548a1.443,1.443,0,0,1,.936.312l.288-.636a2,2,0,0,0-1.26-.4,1.738,1.738,0,0,0-1.908,1.872v.78H164.4v.72h1.128V12h.852V6.408h1.92v-.72h-1.944V4.944C166.356,4.164,166.74,3.756,167.472,3.756ZM175.8,3.6h-3.144V12h.888V9.348H175.8c2.136,0,3.432-1.08,3.432-2.868S177.936,3.6,175.8,3.6Zm-.024,4.968h-2.232v-4.2h2.232c1.68,0,2.568.768,2.568,2.112C178.344,7.8,177.456,8.568,175.776,8.568Zm7.68,3.492a3.1,3.1,0,0,0,3.2-3.216,3.21,3.21,0,0,0-6.42,0A3.114,3.114,0,0,0,183.456,12.06Zm0-.756a2.311,2.311,0,0,1-2.352-2.46,2.349,2.349,0,1,1,4.692,0A2.3,2.3,0,0,1,183.456,11.3Zm13.188-5.616-2,5.364-2.016-5.364h-.732l-2.028,5.364-1.98-5.364h-.816L189.444,12h.8l1.992-5.172L194.232,12h.8l2.388-6.312Zm7.332,3.156a3.008,3.008,0,0,0-3.06-3.2,3.04,3.04,0,0,0-3.084,3.2,3.337,3.337,0,0,0,5.748,2.184l-.48-.552a2.488,2.488,0,0,1-1.932.828,2.336,2.336,0,0,1-2.484-2.2h5.28C203.964,9.012,203.976,8.916,203.976,8.844Zm-3.06-2.472a2.2,2.2,0,0,1,2.244,2.1h-4.476A2.192,2.192,0,0,1,200.916,6.372Zm5.556.552V5.688h-.816V12h.852V8.784a2.042,2.042,0,0,1,2.124-2.328c.06,0,.132.012.2.012V5.64A2.38,2.38,0,0,0,206.472,6.924Zm13.116,3.708a3.637,3.637,0,0,1-2.2.648A3.442,3.442,0,0,1,213.8,7.8a3.645,3.645,0,0,1,6.132-2.5l.552-.564a4.139,4.139,0,0,0-3.12-1.212,4.227,4.227,0,0,0-4.44,4.272,4.224,4.224,0,0,0,4.428,4.272A4.635,4.635,0,0,0,220.44,11V7.8h-.852Zm3.936-3.708V5.688h-.816V12h.852V8.784a2.042,2.042,0,0,1,2.124-2.328c.06,0,.132.012.2.012V5.64A2.38,2.38,0,0,0,223.524,6.924ZM227.8,4.308a.612.612,0,0,0,.624-.624A.605.605,0,0,0,227.8,3.1a.606.606,0,1,0,0,1.212ZM227.364,12h.852V5.688h-.852Zm8.076-8.9V6.888a2.757,2.757,0,0,0-2.4-1.248,3.054,3.054,0,0,0-3.144,3.2,3.063,3.063,0,0,0,3.144,3.216,2.734,2.734,0,0,0,2.436-1.308V12h.816V3.1ZM233.112,11.3a2.311,2.311,0,0,1-2.352-2.46,2.349,2.349,0,1,1,4.692,0A2.308,2.308,0,0,1,233.112,11.3Zm12.408.768a4.085,4.085,0,0,0,3.084-1.236l-.564-.564a3.3,3.3,0,0,1-2.484,1.008A3.433,3.433,0,0,1,242,7.8a3.433,3.433,0,0,1,3.552-3.48,3.329,3.329,0,0,1,2.484,1l.564-.564a4.067,4.067,0,0,0-3.072-1.224,4.217,4.217,0,0,0-4.4,4.272A4.214,4.214,0,0,0,245.52,12.072Zm7.044-.012a3.1,3.1,0,0,0,3.2-3.216,3.21,3.21,0,0,0-6.42,0A3.114,3.114,0,0,0,252.564,12.06Zm0-.756a2.311,2.311,0,0,1-2.352-2.46,2.349,2.349,0,1,1,4.692,0A2.3,2.3,0,0,1,252.564,11.3Zm5.7-4.38V5.688h-.816V12h.852V8.784a2.042,2.042,0,0,1,2.124-2.328c.06,0,.132.012.2.012V5.64A2.38,2.38,0,0,0,258.264,6.924Zm7.092-1.284a2.749,2.749,0,0,0-2.436,1.3V5.688H262.1v8.64h.852V10.812a2.757,2.757,0,0,0,2.4,1.248A3.057,3.057,0,0,0,268.5,8.844,3.054,3.054,0,0,0,265.356,5.64ZM265.3,11.3a2.311,2.311,0,0,1-2.352-2.46,2.354,2.354,0,1,1,4.7,0A2.318,2.318,0,0,1,265.3,11.3Zm7.464.756a3.1,3.1,0,0,0,3.2-3.216,3.21,3.21,0,0,0-6.42,0A3.114,3.114,0,0,0,272.76,12.06Zm0-.756a2.311,2.311,0,0,1-2.352-2.46,2.349,2.349,0,1,1,4.692,0A2.3,2.3,0,0,1,272.76,11.3Zm5.7-4.38V5.688h-.816V12h.852V8.784a2.042,2.042,0,0,1,2.124-2.328c.06,0,.132.012.2.012V5.64A2.38,2.38,0,0,0,278.46,6.924ZM284.5,5.64a4.008,4.008,0,0,0-2.568.852l.384.636a3.215,3.215,0,0,1,2.1-.744c1.176,0,1.788.588,1.788,1.668v.384h-2c-1.812,0-2.436.816-2.436,1.788,0,1.092.876,1.836,2.3,1.836a2.37,2.37,0,0,0,2.172-1.044V12h.816V8.088A2.242,2.242,0,0,0,284.5,5.64Zm-.3,5.748c-1.008,0-1.6-.456-1.6-1.188,0-.648.4-1.128,1.62-1.128h1.98V10.1A2.019,2.019,0,0,1,284.2,11.388ZM292.332,11a1.41,1.41,0,0,1-.936.324,1.011,1.011,0,0,1-1.092-1.152V6.408h1.92v-.72H290.3V4.308h-.852v1.38h-1.128v.72h1.128v3.816A1.672,1.672,0,0,0,291.3,12.06a2.029,2.029,0,0,0,1.332-.444Zm2.22-6.7a.612.612,0,0,0,.624-.624.605.605,0,0,0-.624-.588.606.606,0,1,0,0,1.212ZM294.12,12h.852V5.688h-.852Zm5.748.06a3.1,3.1,0,0,0,3.2-3.216,3.21,3.21,0,0,0-6.42,0A3.114,3.114,0,0,0,299.868,12.06Zm0-.756a2.311,2.311,0,0,1-2.352-2.46,2.349,2.349,0,1,1,4.692,0A2.3,2.3,0,0,1,299.868,11.3Zm8.1-5.664a2.653,2.653,0,0,0-2.4,1.212V5.688h-.816V12h.852V8.688a2.069,2.069,0,0,1,2.208-2.28,1.763,1.763,0,0,1,1.9,2.016V12h.852V8.34A2.416,2.416,0,0,0,307.968,5.64Zm10.512,6.42a3.1,3.1,0,0,0,3.2-3.216,3.21,3.21,0,0,0-6.42,0A3.114,3.114,0,0,0,318.48,12.06Zm0-.756a2.311,2.311,0,0,1-2.352-2.46,2.349,2.349,0,1,1,4.692,0A2.3,2.3,0,0,1,318.48,11.3Zm6.972-7.548a1.443,1.443,0,0,1,.936.312l.288-.636a2,2,0,0,0-1.26-.4,1.738,1.738,0,0,0-1.908,1.872v.78H322.38v.72h1.128V12h.852V6.408h1.92v-.72h-1.944V4.944C324.336,4.164,324.72,3.756,325.452,3.756ZM330.636,12h.888V3.6h-.888Zm6.6-6.36a2.653,2.653,0,0,0-2.4,1.212V5.688h-.816V12h.852V8.688a2.069,2.069,0,0,1,2.208-2.28,1.763,1.763,0,0,1,1.9,2.016V12h.852V8.34A2.416,2.416,0,0,0,337.236,5.64Zm9.78-2.544V6.888a2.757,2.757,0,0,0-2.4-1.248,3.054,3.054,0,0,0-3.144,3.2,3.063,3.063,0,0,0,3.144,3.216,2.734,2.734,0,0,0,2.436-1.308V12h.816V3.1ZM344.688,11.3a2.311,2.311,0,0,1-2.352-2.46,2.349,2.349,0,1,1,4.692,0A2.308,2.308,0,0,1,344.688,11.3Zm5.928-7a.612.612,0,0,0,.624-.624.605.605,0,0,0-.624-.588.606.606,0,1,0,0,1.212ZM350.184,12h.852V5.688h-.852Zm5.376-6.36a4.008,4.008,0,0,0-2.568.852l.384.636a3.215,3.215,0,0,1,2.1-.744c1.176,0,1.788.588,1.788,1.668v.384h-2c-1.812,0-2.436.816-2.436,1.788,0,1.092.876,1.836,2.3,1.836a2.37,2.37,0,0,0,2.172-1.044V12h.816V8.088A2.242,2.242,0,0,0,355.56,5.64Zm-.3,5.748c-1.008,0-1.6-.456-1.6-1.188,0-.648.4-1.128,1.62-1.128h1.98V10.1A2.019,2.019,0,0,1,355.26,11.388Zm8.376.612h5.592v-.768h-4.7V3.6h-.888Zm7.26-7.692a.612.612,0,0,0,.624-.624A.605.605,0,0,0,370.9,3.1a.606.606,0,1,0,0,1.212ZM370.464,12h.852V5.688h-.852ZM381.5,5.64a2.749,2.749,0,0,0-2.5,1.332,2.267,2.267,0,0,0-2.244-1.332,2.552,2.552,0,0,0-2.316,1.2V5.688h-.816V12h.852V8.688a2.034,2.034,0,0,1,2.112-2.28c1.152,0,1.824.684,1.824,2.016V12h.852V8.688a2.029,2.029,0,0,1,2.112-2.28c1.14,0,1.812.684,1.812,2.016V12h.852V8.34A2.382,2.382,0,0,0,381.5,5.64Zm5.232-1.332a.612.612,0,0,0,.624-.624.605.605,0,0,0-.624-.588.606.606,0,1,0,0,1.212ZM386.3,12h.852V5.688H386.3Zm6.192-1a1.41,1.41,0,0,1-.936.324,1.011,1.011,0,0,1-1.092-1.152V6.408h1.92v-.72h-1.92V4.308h-.852v1.38h-1.128v.72h1.128v3.816a1.672,1.672,0,0,0,1.848,1.836,2.029,2.029,0,0,0,1.332-.444Zm7.068-2.16a3.008,3.008,0,0,0-3.06-3.2,3.04,3.04,0,0,0-3.084,3.2,3.337,3.337,0,0,0,5.748,2.184l-.48-.552a2.488,2.488,0,0,1-1.932.828,2.336,2.336,0,0,1-2.484-2.2h5.28C399.552,9.012,399.564,8.916,399.564,8.844ZM396.5,6.372a2.2,2.2,0,0,1,2.244,2.1h-4.476A2.192,2.192,0,0,1,396.5,6.372ZM406.152,3.1V6.888a2.757,2.757,0,0,0-2.4-1.248,3.054,3.054,0,0,0-3.144,3.2,3.063,3.063,0,0,0,3.144,3.216,2.734,2.734,0,0,0,2.436-1.308V12H407V3.1ZM403.824,11.3a2.311,2.311,0,0,1-2.352-2.46,2.349,2.349,0,1,1,4.692,0A2.308,2.308,0,0,1,403.824,11.3Zm5.592-.552a.628.628,0,0,0-.636.648.607.607,0,0,0,.432.612l-.408,1.74h.576l.5-1.656a1.958,1.958,0,0,0,.168-.7A.628.628,0,0,0,409.416,10.752Z" transform="translate(241 107)" fill="#333"/>
    <g id="CTU_logo" data-name="CTU logo" transform="translate(93.1 45.8)">
      <path id="Path_38320" data-name="Path 38320" d="M136.147,80.762c-.1.444-.214.908-.311,1.352A12.325,12.325,0,0,1,123.867,92.2H27.1A12.329,12.329,0,0,1,15.114,81.226a6.258,6.258,0,0,0-.214-.867V27.3c.078-.323.155-.646.214-.968.758-5.023,3.42-8.473,7.967-10.248a24.723,24.723,0,0,1,4.061-.888h96.765c.389.061.758.141,1.146.182a11.893,11.893,0,0,1,9.987,7.5,30.622,30.622,0,0,1,1.108,3.813Q136.147,53.72,136.147,80.762ZM75.543,19.3H64.856q-18.566,0-37.113,0a8.422,8.422,0,0,0-7.6,4.014,9.993,9.993,0,0,0-1.36,5.568V54.194c0,8.21-.019,16.4,0,24.611.019,5.85,3.5,9.421,9.113,9.421h95.482c5.188,0,8.841-3.712,8.841-9.1q.029-25.357,0-50.735a9.292,9.292,0,0,0-1.282-4.983,8.364,8.364,0,0,0-7.733-4.115Q99.423,19.325,75.543,19.3Z" transform="translate(0 0)" fill="#014ea2"/>
      <path id="Path_38321" data-name="Path 38321" d="M95.889,78.241a6.26,6.26,0,0,1,.35,7.345c-1.5,2.409-3.906,3.128-6.626,2.759-.408,2.915.661,7.325,4.7,8.666a17.189,17.189,0,0,0,4.488.466c1.477.078,1.477.019,1.477,1.516,0,.622-.039,1.224,0,1.846.039.641-.311.952-.836.933-2.856-.058-5.732.369-8.53-.719a10.541,10.541,0,0,1-7.15-8.647c-.253-1.593-.253-3.206-.369-4.955-.583-.019-1.244-.058-1.943-.1V84.031c.35-.019.7-.039,1.049-.039,1.943-.078,3.867-.117,5.79-.233a2.49,2.49,0,0,0,2.565-2.507c.039-1.166-.661-2.779-2.06-2.876-.661-.039-1.341-.214-2-.233-2.079-.039-4.139-.019-6.3-.019V75.462h19.761c-.214-.466-.35-.8-.505-1.088-1.982-3.556-.33-6.432,3.031-7.947a12.836,12.836,0,0,1,7.539-.544c4.663.816,7.248,3.944,8.239,8.433.194.894.525,1.185,1.457,1.146,3.012-.078,6.024-.019,9.035-.019h1.185c-.233-.466-.369-.777-.525-1.088-1.982-3.672-.272-6.47,3.031-7.947a12.831,12.831,0,0,1,7.539-.525c4.625.816,7.189,3.886,8.219,8.355.058.214.1.447.155.661.039.155.1.311.175.563h1.127c8.841,0,17.682.019,26.523-.019,1.049,0,1.146.427,1.108,1.263-.039,1.418,0,1.418-1.146,1.438-2.079.019-2.079.019-2.079,2.118V95.2H172.29a1.1,1.1,0,0,0-.155.253,10.507,10.507,0,0,1,5.324,6.179c-1.03,0-2.021.039-2.992-.039-.194-.019-.466-.369-.544-.622a5.3,5.3,0,0,0-3.3-3.575,4.305,4.305,0,0,0-2.429-.078,1.533,1.533,0,0,0-.68,2.273,1.744,1.744,0,0,0,2.351.175,5.686,5.686,0,0,0,.738-.836c.447.661.874,1.3,1.282,1.943-1.943,1.963-6.082,1.632-7.578-.544a3.11,3.11,0,0,1-.35-3.3,3.729,3.729,0,0,1,3.031-2.137c1.438-.136,1.457-.117,1.438-1.593,0-.525-.019-1.03-.039-1.554,0-.058-.058-.1-.155-.233-.291.155-.583.33-.894.505a11.388,11.388,0,0,1-6.82,1.632,18.39,18.39,0,0,1-2.915-.563c-3.595-.933-5.246-3.614-6.1-6.956a.175.175,0,0,0-.019-.1c-.389-2.2-.369-2.118,1.885-2.1a11.391,11.391,0,0,0,3.478-.68,2.2,2.2,0,0,0,1.418-2.215c-.136-1.554-.622-2.429-1.846-2.6a39.838,39.838,0,0,0-4.819-.272c-2.681-.039-2.681-.019-2.681,2.681V94.951H142.97V78.163c-1.244,0-2.371-.039-3.478.039-.175.019-.427.505-.447.777-.039,1.3-.058,2.584,0,3.886.039.8-.291.991-1.03.991-2.1-.039-4.216.019-6.315-.019-2.6-.039-3.983,1.749-4.2,4.139-.117,1.224,1.36,2.856,2.837,3.012,2.9.311,5.771.233,8.3-1.516.6-.427,1.146-.913,1.807-1.438.622,1.574,1.224,3.128,1.885,4.819a24.187,24.187,0,0,1-3.731,2.04c-4.042,1.38-8.1,1.865-12.28.214-5.188-2.079-6.412-8.413-3.128-11.872A9.084,9.084,0,0,1,129,80.223c1.341-.136,2.681-.253,4.042-.389.408-1.5.272-1.671-1.224-1.671-3.925,0-7.831.019-11.756-.019-.894-.019-1.146.272-1.146,1.146.039,4.819.019,9.657.019,14.476v1.185h-5.965V93.844c0-4.9-.019-9.774.019-14.67,0-.816-.253-1.069-1.049-1.03-.991.058-2,.019-3.109.019V94.971h-5.985c0-.952.019-1.9,0-2.856-.039-1.127-.1-2.235-.155-3.362-1.127-.039-2.254-.1-3.381-.117-.738-.019-1.477,0-2.371,0,0-1.166-.039-2.235.039-3.284.019-.214.505-.525.777-.544,1.321-.058,2.662-.058,3.983-.019.777.019,1.108-.194,1.088-1.03-.058-1.554-.039-3.109,0-4.663.019-.719-.253-.972-.972-.952-1.885.039-3.75.019-5.635.019C96.219,78.124,96.142,78.163,95.889,78.241Zm61.79,7.014a3.887,3.887,0,0,0,4.022,4.139,6.955,6.955,0,0,0,4.489-1.282c.855-.661,2.021-1.554,2.137-2.468a55.306,55.306,0,0,0,.1-7.189h-4.935c1.943,2.507.777,4.741-1.2,5.829A8.209,8.209,0,0,1,157.679,85.255Zm-44.691-9.812a15.853,15.853,0,0,0-.525-1.613c-1.01-2.118-2.8-4.119-5.13-3.944-1.069.078-2.079.194-2.507,1.263a3.1,3.1,0,0,0,.486,3.361c.33.369.758.874,1.166.894C108.577,75.482,110.676,75.443,112.988,75.443Zm29.962,0a11.539,11.539,0,0,0-.583-1.71c-1.127-2.079-2.409-3.925-5.169-3.847-1.03.039-2,.233-2.429,1.244a3.072,3.072,0,0,0,.408,3.284c.35.408.836.972,1.3,1.01C138.559,75.5,140.657,75.443,142.95,75.443Z" transform="translate(-52.853 -40.579)" fill="#014ea2"/>
      <path id="Path_38322" data-name="Path 38322" d="M409.207,254.1h12.144c.019.427.058.738.058,1.049,0,3.051-.019,6.082,0,9.132a4.571,4.571,0,0,1-1.477,3.459,13.2,13.2,0,0,1-6.49,3.089,48.468,48.468,0,0,1-23.122-.272,21.652,21.652,0,0,1-5.188-2.507,3.935,3.935,0,0,1-1.865-3.459c-.058-3.42-.019-6.859-.019-10.337h12.319v1.069c0,2.973.019,5.965-.019,8.938a2.622,2.622,0,0,0,1.846,2.759,11.015,11.015,0,0,0,2.623.641,17.29,17.29,0,0,0,6.548-.33c1.982-.525,2.643-1.438,2.643-3.478C409.226,260.59,409.207,257.364,409.207,254.1Z" transform="translate(-296.765 -189.647)" fill="#014ea2"/>
      <path id="Path_38323" data-name="Path 38323" d="M194.2,230.644V226.7h45.312v3.944h-1.166c-5.013,0-10.026.019-15.059-.019-.8,0-1.049.214-1.03,1.03.039,5.635,0,11.27.039,16.9,0,.8-.214,1.069-1.03,1.049-2.953-.039-5.888-.039-8.841,0-.836.019-1.03-.311-1.03-1.088q.029-8.307.019-16.613c0-1.282,0-1.282-1.263-1.282h-14.67C195.094,230.644,194.725,230.644,194.2,230.644Z" transform="translate(-144.461 -167.571)" fill="#014ea2"/>
      <path id="Path_38324" data-name="Path 38324" d="M104.871,253.319v4H103.8a53.328,53.328,0,0,0-12.436.991,13.991,13.991,0,0,0-3.925,1.535c-2.021,1.224-1.982,3.4.019,4.722a13.183,13.183,0,0,0,6.237,1.924c3.284.291,6.568.389,9.871.583.408.019.836,0,1.36,0,0,1.224.039,2.351-.039,3.459-.019.175-.544.466-.836.466-2.643,0-5.3.02-7.947-.117a55.523,55.523,0,0,1-13.388-1.9,20.089,20.089,0,0,1-6.49-2.973,8.3,8.3,0,0,1-1.4-1.341,3.756,3.756,0,0,1,.039-5.052,11.64,11.64,0,0,1,4.9-3.206,40.4,40.4,0,0,1,12.552-2.681c3.808-.253,7.617-.291,11.445-.428C104.074,253.3,104.424,253.319,104.871,253.319Z" transform="translate(-47.515 -189.002)" fill="#014ea2"/>
    </g>
  </g>
</svg>
